<svg version="1.1" id="OpenSpeedtest"
	xmlns="http://www.w3.org/2000/svg"
	xmlns:xlink="http://www.w3.org/1999/xlink"
    class="openSpeedtestApp">
	<symbol id="logo" viewBox="0 0 262.79 50.38">
		<a target="_blank" href="http://openspeedtest.com?ref=Self-Hosted-Intro&amp;run=5">
			<g>
				<path
            d="M39.77,15.17A27,27,0,0,0,34,6.71c-2.49-2.13-4.33-2.13-6.68,0a15.2,15.2,0,0,0-2.55,3.06c-5.4,8.59-9.17,17.68-9.31,28a22.39,22.39,0,0,0,.5,5.33C16.83,46.7,19,48,22.66,47.2a32.27,32.27,0,0,0,7-2.56c-1.78,2.63-6.47,5.4-9.38,5.68a7.44,7.44,0,0,1-7.46-3.62,17.59,17.59,0,0,1-2.62-9.16A41.31,41.31,0,0,1,13.42,19C15.55,14.1,18,9.41,21.66,5.51a18.35,18.35,0,0,1,3.91-3.2C29.33.18,33,.82,35.72,4.09a19.33,19.33,0,0,1,4,9.94Z"
            style="fill: #4d4d4d" />
				<path
            d="M12.93,49.4C9.16,51,5.47,49.76,3.2,46.2A20.53,20.53,0,0,1,.21,37C-.92,25.11,2.56,14.6,9.45,5.08A12.69,12.69,0,0,1,15.06.53a7.51,7.51,0,0,1,7.31,1,5.17,5.17,0,0,1,.71.71A14.47,14.47,0,0,0,20.53,4.3c-2.21-1.28-3.84.14-4.76.92a14.34,14.34,0,0,0-3,3.91C8,18.08,4.9,27.52,5.47,37.89a17.58,17.58,0,0,0,1,5.4c.71,1.85,1.71,3.48,4.48,3.77C11.15,47.06,12,48.69,12.93,49.4Z"
            style="fill: #3da6ff" />
				<path
            d="M109.31,16.8a16.31,16.31,0,0,1,6,.92A6.55,6.55,0,0,1,119.61,24c0,.78-.15,1.28-1,1.28s-1.42.14-1.7-.92c-.86-3.77-2.13-4.69-6-4.76a12.92,12.92,0,0,0-5,.57,3,3,0,0,0-2.34,3.19A3,3,0,0,0,106,26.39c2.48.71,4.9,1.21,7.39,1.77a22,22,0,0,1,2.77.93,5.47,5.47,0,0,1,3.9,5.25,5.44,5.44,0,0,1-3.34,5.76,14,14,0,0,1-12.35.14c-3-1.28-4.12-3.84-4.27-7,0-.93.36-1.35,1.28-1.35s1.35.28,1.42,1.21c.43,3.76,1.64,4.9,5.4,5.54a11.78,11.78,0,0,0,6.61-.57,3.45,3.45,0,0,0,2.48-3.48c0-1.64-.78-2.63-2.63-3.13-2.34-.71-4.83-1.21-7.17-1.77a22.21,22.21,0,0,1-3-1,5.61,5.61,0,0,1-3.48-6,5.55,5.55,0,0,1,4.26-5.19A11.35,11.35,0,0,1,109.31,16.8Z"
            style="fill: #4d4d4d" />
				<path
            d="M237.65,41.52c-3.84,0-6-1.35-6.89-4.05a5.87,5.87,0,0,1-.43-2.2c0-.86.36-1.42,1.28-1.42S233,33.92,233,35c0,3.55,4.41,5.26,7.53,3.34a2,2,0,0,0,1.21-1.92,2,2,0,0,0-1.35-1.84c-1.49-.79-3.2-.79-4.9-1.14-3.2-.71-4.76-2.56-4.48-5.61a5.37,5.37,0,0,1,4.69-4.48,10.83,10.83,0,0,1,4.76.29,5.24,5.24,0,0,1,3.84,5.54c-.08.78-.43,1.13-1.14,1.13s-1.63-.07-1.63-.92c.07-3.34-3.56-4.4-6.33-3a2.31,2.31,0,0,0-1.49,2.34c.07,1.14.93,1.49,1.78,1.71,1.85.49,3.83.78,5.68,1.35a4.49,4.49,0,0,1,3.34,4.54,4.62,4.62,0,0,1-3.13,4.55A6,6,0,0,1,237.65,41.52Z"
            style="fill: #3da6ff" />
				<path d="M35,22.27,33.74,24c-2.35-.78-5.83.43-8,3.48A7.15,7.15,0,0,1,35,22.27Z" style="fill: #3da6ff" />
				<path d="M39.56,32.35a7.75,7.75,0,0,0-1.35-5.54l.85-1.7C40.7,26.89,40.91,29.73,39.56,32.35Z"
            style="fill: #3da6ff" />
				<path
            d="M262.79,17.65h0V16.8c0-.36,0-.71-.35-.78s-.57.28-.78.5c-.43.71-.93,1.42-1.42,2.27-.57-.85-1-1.64-1.5-2.27-.14-.29-.35-.71-.78-.5s-.42.42-.42.78V22a.53.53,0,0,0,.49.5h0a.53.53,0,0,0,.5-.5v-4l1.35,2.13c.14.14.43.28.57,0l1.35-1.85v3.84a.53.53,0,0,0,.5.49h0a.53.53,0,0,0,.49-.49V17.72h0Z"
            style="fill: #4d4d4d" />
				<path
            d="M256.54,16h-3.41a.53.53,0,0,0-.49.49h0a.53.53,0,0,0,.49.5h1.21v5a.54.54,0,0,0,.5.5h0a.54.54,0,0,0,.5-.5v-5h1.2a.53.53,0,0,0,.5-.5h0A.59.59,0,0,0,256.54,16Z"
            style="fill: #4d4d4d" />
				<path
            d="M252.64,24.4h-1.85V20.14a1,1,0,0,0-.92-.93h-.57a1,1,0,0,0-.93.93V24.4h-1.84a.94.94,0,0,0-.92.92v.57a.93.93,0,0,0,.92.92h1.84v13.5a.94.94,0,0,0,.93.92h.57a.94.94,0,0,0,.92-.92V26.81h1.85a.94.94,0,0,0,.92-.92v-.57A.94.94,0,0,0,252.64,24.4Z"
            style="fill: #3da6ff" />
				<path
            d="M212.72,18a1,1,0,0,0-.92-.93H194.25a1,1,0,0,0-.92.93v.71a.94.94,0,0,0,.92.92h7.53V40.38a.94.94,0,0,0,.93.92h.71a.94.94,0,0,0,.92-.92V19.5h7.53a.94.94,0,0,0,.92-.92V18Z"
            style="fill: #3da6ff" />
				<path d="M190.06,39.31v0Z" style="fill: #7c7c7c" />
				<path
            d="M190.06,18v7c-4.4-3.84-11.43-2.77-13.49,3.34a11.48,11.48,0,0,0,.07,8,7.72,7.72,0,0,0,7.53,5.26,8.84,8.84,0,0,0,6-2.27h0v1a.94.94,0,0,0,.93.92h.78a.93.93,0,0,0,.92-.92V18a.94.94,0,0,0-.92-.93h-.78A.92.92,0,0,0,190.06,18Zm-6.82,20.81a4.79,4.79,0,0,1-1.13-.29c-3.06-1.2-4.41-5.39-3.06-9.23a5.49,5.49,0,0,1,7.11-3.55c2.48.71,3.9,3.12,3.9,6.53C190.06,36.62,187.22,39.31,183.24,38.82Z"
            style="fill: #4d4d4d" />
				<path
            d="M48.58,47.2h0a1.31,1.31,0,0,0,1.35-1.35V39.17c4.4,3.84,11.43,2.77,13.49-3.34a11.48,11.48,0,0,0-.07-8,7.7,7.7,0,0,0-7.52-5.26,8.83,8.83,0,0,0-6,2.28h0v-.57a1.31,1.31,0,0,0-1.35-1.35h0a1.31,1.31,0,0,0-1.35,1.35V45.78A1.42,1.42,0,0,0,48.58,47.2Zm8.17-21.74a6,6,0,0,1,1.13.29c3.06,1.21,4.41,5.4,3.06,9.23a5.47,5.47,0,0,1-7.1,3.55c-2.49-.71-3.91-3.12-3.91-6.53C49.93,27.67,52.7,24.83,56.75,25.46Z"
            style="fill: #3da6ff" />
				<path
            d="M228.06,33.56c1.21.07,1.64-.5,1.64-1.63.07-3.55-1.64-6.61-4.55-7.89-3.41-1.42-6.68-1.27-9.66,1.28-3.34,2.77-3.91,9-1.42,12.86,2.13,3.19,7,4.33,11.08,2.48a6.57,6.57,0,0,0,3.62-4c.29-.57.36-1.28-.35-1.5a1.51,1.51,0,0,0-1.78.15c-.28.28-.35.71-.57,1-1.13,2.06-3.83,3.05-6.74,2.56a4.77,4.77,0,0,1-3.91-4,10.21,10.21,0,0,1-.14-1.35ZM215.21,31a5.92,5.92,0,0,1,.92-2.55h0a5.81,5.81,0,0,1,5.26-2.56A5.46,5.46,0,0,1,226.85,31Z"
            style="fill: #3da6ff" />
				<path
            d="M173.37,33.56c1.21.07,1.64-.5,1.64-1.63.07-3.55-1.64-6.61-4.55-7.89-3.41-1.42-6.68-1.27-9.66,1.28-3.34,2.77-3.91,9-1.42,12.86,2.13,3.19,7,4.33,11.08,2.48a6.57,6.57,0,0,0,3.62-4c.29-.57.36-1.28-.35-1.5a1.51,1.51,0,0,0-1.78.15c-.28.28-.35.71-.57,1-1.13,2.06-3.83,3.05-6.74,2.56a4.77,4.77,0,0,1-3.91-4,10.21,10.21,0,0,1-.14-1.35ZM160.52,31a5.92,5.92,0,0,1,.92-2.55h0a5.81,5.81,0,0,1,5.26-2.56A5.46,5.46,0,0,1,172.16,31Z"
            style="fill: #4d4d4d" />
				<path
            d="M155.4,33.56c1.21.07,1.64-.5,1.64-1.63.07-3.55-1.64-6.61-4.55-7.89-3.41-1.42-6.68-1.27-9.66,1.28-3.34,2.77-3.91,9-1.42,12.86,2.13,3.19,7,4.33,11.08,2.48a6.57,6.57,0,0,0,3.62-4c.29-.57.36-1.28-.35-1.5a1.51,1.51,0,0,0-1.78.15c-.28.28-.35.71-.57,1-1.13,2.06-3.83,3.05-6.74,2.56a4.77,4.77,0,0,1-3.91-4,10.21,10.21,0,0,1-.14-1.35ZM142.55,31a5.92,5.92,0,0,1,.92-2.55h0a5.81,5.81,0,0,1,5.26-2.56A5.49,5.49,0,0,1,154.2,31Z"
            style="fill: #4d4d4d" />
				<path
            d="M80.4,33.56c1.21.07,1.63-.5,1.63-1.63.07-3.55-1.63-6.61-4.54-7.89-3.41-1.42-6.68-1.27-9.66,1.28-3.34,2.77-3.91,9-1.42,12.86,2.13,3.19,7,4.33,11.08,2.48a6.6,6.6,0,0,0,3.62-4c.28-.57.36-1.28-.36-1.5a1.49,1.49,0,0,0-1.77.15c-.28.28-.36.71-.57,1-1.14,2.06-3.83,3.05-6.75,2.56a4.75,4.75,0,0,1-3.9-4,10.21,10.21,0,0,1-.14-1.35ZM67.54,31a5.88,5.88,0,0,1,.93-2.55h0a5.8,5.8,0,0,1,5.25-2.56A5.46,5.46,0,0,1,79.19,31Z"
            style="fill: #3da6ff" />
				<path
            d="M97.87,29.51A5.77,5.77,0,0,0,94,23.83a7.7,7.7,0,0,0-7,.5,8.08,8.08,0,0,0-1,.85V25a1.35,1.35,0,1,0-2.7,0V39.81a1.35,1.35,0,0,0,2.7,0V30.65c.07-3,2.2-4.83,5.26-4.76,2.7.07,4,1.63,4,4.76v8.88c0,.92.15,1.49,1.28,1.49s1.35-.71,1.35-1.49C97.87,36.26,97.94,32.92,97.87,29.51Z"
            style="fill: #3da6ff" />
				<path d="M86,32.07v0Z" style="fill: #3da6ff" />
				<path
            d="M45.38,31.22c-1,8.66-8.16,10.86-14.13,10.15C23.65,40.52,20.38,34.7,21,27.74c.57-7.6,6.32-11.3,13.92-10.59a10.89,10.89,0,0,1,1.5.15c.78.14,1.91.42,1.91.42l-1.2,1.71-.43.71-1.21-.07A9.87,9.87,0,0,0,31.39,20c-5.11.78-7.81,3.76-7.88,9-.07,3.76,1,7,4.69,8.8s7.6,1.78,11.08-.78,4.54-9.09,2.13-13.14l-1.14-1.77,1.14-2.21C45.17,22.91,46,26.89,45.38,31.22Z"
            style="fill: #3da6ff" />
				<path
            d="M41.34,16.23h0c-3.13,4.41-6.25,8.74-9.52,13.14l-.14.29c-.07.07-.07.14-.15.28-.92,1.28-.85,2.2.29,2.91s2.34.36,3-1c2.28-5,4.55-10.09,6.89-15.2l.93-2.06ZM33.67,31.57a1,1,0,0,1-.72.36.83.83,0,0,1-.85-.85,1,1,0,0,1,.85-.86.81.81,0,0,1,.72.36A1.22,1.22,0,0,1,33.67,31.57Z"
            style="fill: #3da6ff" />
				<path
            d="M136.08,34.91a5.46,5.46,0,0,1-7.1,3.55c-2.48-.71-3.91-3.12-3.91-6.53,0-4.41,2.77-7.1,6.89-6.61a4.75,4.75,0,0,1,1.14.29C136,26.89,137.43,31.15,136.08,34.91Zm2.42-7A7.72,7.72,0,0,0,131,22.62a8.85,8.85,0,0,0-6,2.28V23.55a.94.94,0,0,0-.92-.93h-.78a.94.94,0,0,0-.92.93V45.92a.93.93,0,0,0,.92.92h.78a.93.93,0,0,0,.92-.92V39.17c4.41,3.84,11.44,2.77,13.5-3.34A11.79,11.79,0,0,0,138.5,27.88Z"
            style="fill: #4d4d4d" />
			</g>
			<rect fill="transparent" x="0" y="0" width="265" height="60" />
			<title>OpenSpeedTest™️</title>
		</a>
	</symbol>
	<symbol id="mainGaugebg" viewBox="0 0 295.93 270.18">
		<path fill="none" d="M64.32,256.41a137,137,0,1,1,192.09-24.8l-.07.09a134.45,134.45,0,0,1-24.71,24.71" />
	</symbol>
	<symbol id="mainGaugeBlue" viewBox="0 0 295.93 270.18">
		<path fill="none" d="M64.32,256.41a137,137,0,1,1,192.09-24.8l-.07.09a134.45,134.45,0,0,1-24.71,24.71" />
	</symbol>
	<symbol id="mainGaugeWhite" viewBox="0 0 295.93 270.18">
		<path fill="none" d="M64.32,256.41a137,137,0,1,1,192.09-24.8l-.07.09a134.45,134.45,0,0,1-24.71,24.71" />
	</symbol>
	<symbol id="oDoMeter" viewBox="0 0 295.93 270.18">
		<text transform="translate(76.34 264.28) scale(0.9 1)">0</text>
		<text transform="translate(23.81 164.6) scale(0.9 1)">.5</text>
		<text transform="translate(50.01 80.11) scale(0.9 1)">1</text>
		<text transform="translate(140.58 36.04) scale(0.9 1)">10</text>
		<text transform="translate(220.43 79.11) scale(0.9 1)">100</text>
		<text transform="translate(246.71 164.6) scale(0.9 1)">500</text>
		<text id="oDoTopSpeed" class="oDoTop-Speed" transform="translate(220.71 265.99) scale(0.9 1)">1000+</text>

	</symbol>







		<a id="resultsData">
			<svg class="Desktop" viewBox="0 0 586 346">
				<title id="title1">HTML5 Network Performance Estimation Tool. by OpenSpeedTest™</title>
				<g id="UI-Desk">
					<use id="mainGaugebg-Desk" class="main-Gaugebg" xlink:href="#mainGaugebg" x="10.28" y="36.11" width="273.94" height="245.39"></use>
					<use id="mainGaugeBlue-Desk" class="main-GaugeBlue" xlink:href="#mainGaugeBlue" x="10.28" y="36.11" width="273.94" height="245.39"></use>
					<use id="mainGaugeWhite-Desk" class="main-GaugeWhite" xlink:href="#mainGaugeWhite" x="10.28" y="36.11" width="273.94" height="245.39"></use>



					<use class="oDo-Meter" xlink:href="#oDoMeter" x="10.28" y="36.11" width="273.94" height="245.39"></use>


				</g>
				<g id="intro-Desk">
					<use id="deskStart" class="deskStart" xlink:href="#mainGaugebg" x="10.28" y="36.11" width="273.94" height="245.39"></use>






				</g>
			</svg>
			<svg class="Mobile" viewBox="0 0 295.9 363.3">
				<title id="title1">HTML5 Network Performance Estimation Tool. by OpenSpeedTest™</title>
				<g id="UI-Mob">
					<use id="mainGaugebg-Mob" class="main-Gaugebg" xlink:href="#mainGaugebg" x="11.18" y="12" width="273.94" height="245.39"></use>
					<use id="mainGaugeBlue-Mob" class="main-GaugeBlue" xlink:href="#mainGaugeBlue" x="11.18" y="12" width="273.94" height="245.39"></use>
					<use id="mainGaugeWhite-Mob" class="main-GaugeWhite" xlink:href="#mainGaugeWhite" x="11.18" y="12" width="273.94" height="245.39"></use>




					<use class="oDo-Meter" xlink:href="#oDoMeter" x="11.18" y="12" width="273.94" height="245.39"></use>





				</g>
				<g id="intro-Mob">

					<use id="deskStartMob" class="deskStart" xlink:href="#mainGaugebg" x="11.18" y="12" width="273.94" height="245.39"></use>


				</g>
			</svg>
		</a>
		<linearGradient id="gradient" x1="0%" y1="0%" x2="0%" y2="100%">
			<stop offset="0%" stop-color="#56c4fb" />
			<stop offset="100%" stop-color="#0baeff" />
		</linearGradient>
		<radialGradient id="RadialGradient1">
			<stop offset="0%" stop-color="#56c4fb" />
			<stop offset="100%" stop-color="#0baeff" />
		</radialGradient>
	</svg>